<?xml version="1.0" encoding="utf-8"?>
<!-- Generator: Adobe Illustrator 24.0.0, SVG Export Plug-In . SVG Version: 6.00 Build 0)  -->
<svg version="1.1" id="Слой_2" xmlns="http://www.w3.org/2000/svg" xmlns:xlink="http://www.w3.org/1999/xlink" x="0px" y="0px"
	 viewBox="0 0 1000 1000" style="enable-background:new 0 0 1000 1000;" xml:space="preserve">
<style type="text/css">
	.st0{fill:#FB4F4F;}
	.st1{fill:#6CC0E5;}
	.st2{fill:#B4A696;}
	.st3{fill:#FBC93D;}
</style>
<path class="st0" d="M502.5,469.51v214H291.22c-1.21-0.54-2.18-1.51-2.72-2.72v-71.9c-1.31-3.99-5.07-6.88-9.5-6.88
	c-2.24,0-4.31,0.74-5.98,1.99c-5.61,4.09-12.53,6.51-20.02,6.51c-18.78,0-34-15.22-34-34c0-18.78,15.22-34,34-34
	c7.49,0,14.41,2.42,20.02,6.51c1.67,1.25,3.74,1.99,5.98,1.99c4.43,0,8.19-2.89,9.5-6.88v-74.62h74.62c3.99,1.31,6.88,5.07,6.88,9.5
	c0,2.24-0.74,4.31-1.99,5.98c-4.09,5.61-6.51,12.53-6.51,20.02c0,18.78,15.22,34,34,34s34-15.22,34-34c0-7.49-2.42-14.41-6.51-20.02
	c-1.25-1.67-1.99-3.74-1.99-5.98c0-4.43,2.89-8.19,6.88-9.5H502.5z"/>
<path class="st1" d="M786,362.51c0,18.78-15.22,34-34,34c-7.49,0-14.41-2.42-20.02-6.51c-1.67-1.25-3.74-1.99-5.98-1.99
	c-4.43,0-8.19,2.89-9.5,6.88v74.62h-74.62c-3.99-1.31-6.88-5.07-6.88-9.5c0-2.24,0.74-4.31,1.99-5.98
	c4.09-5.61,6.51-12.53,6.51-20.02c0-18.78-15.22-34-34-34s-34,15.22-34,34c0,7.49,2.42,14.41,6.51,20.02
	c1.25,1.67,1.99,3.74,1.99,5.98c0,4.43-2.89,8.19-6.88,9.5H502.5v-214h211.28c1.21,0.54,2.18,1.51,2.72,2.72v71.9
	c1.31,3.99,5.07,6.88,9.5,6.88c2.24,0,4.31-0.74,5.98-1.99c5.61-4.09,12.53-6.51,20.02-6.51C770.78,328.51,786,343.73,786,362.51z"
	/>
<path class="st2" d="M716.5,469.51v211.28c-0.54,1.21-1.51,2.18-2.72,2.72h-71.9c-3.99,1.31-6.88,5.07-6.88,9.5
	c0,2.24,0.74,4.31,1.99,5.98c4.09,5.61,6.51,12.53,6.51,20.02c0,18.78-15.22,34-34,34s-34-15.22-34-34c0-7.49,2.42-14.41,6.51-20.02
	c1.25-1.67,1.99-3.74,1.99-5.98c0-4.43-2.89-8.19-6.88-9.5H502.5v-214h74.62c3.99-1.31,6.88-5.07,6.88-9.5
	c0-2.24-0.74-4.31-1.99-5.98c-4.09-5.61-6.51-12.53-6.51-20.02c0-18.78,15.22-34,34-34s34,15.22,34,34c0,7.49-2.42,14.41-6.51,20.02
	c-1.25,1.67-1.99,3.74-1.99,5.98c0,4.43,2.89,8.19,6.88,9.5H716.5z"/>
<path class="st3" d="M421,479.01c0,2.24,0.74,4.31,1.99,5.98c4.09,5.61,6.51,12.53,6.51,20.02c0,18.78-15.22,34-34,34
	s-34-15.22-34-34c0-7.49,2.42-14.41,6.51-20.02c1.25-1.67,1.99-3.74,1.99-5.98c0-4.43-2.89-8.19-6.88-9.5H288.5V258.23
	c0.54-1.21,1.51-2.18,2.72-2.72h71.9c3.99-1.31,6.88-5.07,6.88-9.5c0-2.24-0.74-4.31-1.99-5.98c-4.09-5.61-6.51-12.53-6.51-20.02
	c0-18.78,15.22-34,34-34s34,15.22,34,34c0,7.49-2.42,14.41-6.51,20.02c-1.25,1.67-1.99,3.74-1.99,5.98c0,4.43,2.89,8.19,6.88,9.5
	h74.62v214h-74.62C423.89,470.82,421,474.58,421,479.01z"/>
</svg>
