<?xml version="1.0" encoding="utf-8"?>
<!-- Generator: Adobe Illustrator 24.0.0, SVG Export Plug-In . SVG Version: 6.00 Build 0)  -->
<svg version="1.1" id="Слой_2" xmlns="http://www.w3.org/2000/svg" xmlns:xlink="http://www.w3.org/1999/xlink" x="0px" y="0px"
	 width="800" viewBox="-350 0 1700 1000" style="enable-background:new 0 0 1000 1000;" xml:space="preserve">
<style type="text/css">
	.st0{fill:#FB4F4F;}
	.st1{fill:#6CC0E5;}
	.st2{fill:#B4A696;}
	.st3{fill:#FBC93D;}
</style>
<path class="st0" d="M534.14,469.51v214H322.86c-1.21-0.54-2.18-1.51-2.72-2.72v-71.9c-1.31-3.99-5.07-6.88-9.5-6.88
	c-2.24,0-4.31,0.74-5.98,1.99c-5.61,4.09-12.53,6.51-20.02,6.51c-18.78,0-34-15.22-34-34c0-18.78,15.22-34,34-34
	c7.49,0,14.41,2.42,20.02,6.51c1.67,1.25,3.74,1.99,5.98,1.99c4.43,0,8.19-2.89,9.5-6.88v-74.62h74.62c3.99,1.31,6.88,5.07,6.88,9.5
	c0,2.24-0.74,4.31-1.99,5.98c-4.09,5.61-6.51,12.53-6.51,20.02c0,18.78,15.22,34,34,34s34-15.22,34-34c0-7.49-2.42-14.41-6.51-20.02
	c-1.25-1.67-1.99-3.74-1.99-5.98c0-4.43,2.89-8.19,6.88-9.5H534.14z"/>
<path class="st1" d="M779,318.51c5.83,17.85-3.91,37.04-21.77,42.87c-7.12,2.33-14.45,2.17-21.05,0.03
	c-1.98-0.67-4.17-0.73-6.3-0.04c-4.21,1.38-6.89,5.29-6.89,9.49l23.16,70.93l-64.09,20.93l-21.99-67.33l-76.09,24.85l21.99,67.33
	l-63.25,20.66L476.29,304.8l200.84-65.59c1.32,0.14,2.54,0.76,3.43,1.74l22.32,68.35c2.48,3.39,6.96,4.97,11.17,3.59
	c2.13-0.7,3.87-2.04,5.07-3.75c4.06-5.63,9.89-10.08,17.01-12.4C753.98,290.91,773.17,300.66,779,318.51z"/>
<path class="st2" d="M766.51,566.76l-85.24,193.32c-0.98,0.89-2.26,1.39-3.59,1.39l-65.79-29.01c-4.18-0.41-8.34,1.86-10.13,5.92
	c-0.9,2.05-1.06,4.24-0.59,6.27c1.48,6.78,0.9,14.09-2.12,20.94c-7.58,17.18-27.64,24.97-44.83,17.39s-24.97-27.64-17.39-44.83
	c3.02-6.85,8.03-12.21,14.03-15.69c1.82-1.02,3.33-2.62,4.23-4.67c1.79-4.05,0.66-8.66-2.46-11.47l-68.28-30.11l86.34-195.81
	l68.28,30.11c4.18,0.41,8.34-1.86,10.13-5.92c0.9-2.05,1.06-4.24,0.59-6.27c-1.48-6.78-0.9-14.09,2.12-20.94
	c7.58-17.18,27.64-24.97,44.83-17.39s24.97,27.64,17.39,44.83c-3.02,6.85-8.03,12.21-14.03,15.69c-1.82,1.02-3.33,2.62-4.23,4.67
	c-1.79,4.05-0.66,8.66,2.46,11.47L766.51,566.76z"/>
<path class="st3" d="M484.36,243.1v214h-62.59v69.5h-88.21v-69.5h-63.2V245.82c0.54-1.21,1.51-2.18,2.72-2.72h71.9
	c3.99-1.31,6.88-5.07,6.88-9.5c0-2.24-0.74-4.31-1.99-5.98c-4.09-5.61-6.51-12.53-6.51-20.02c0-18.78,15.22-34,34-34
	c18.78,0,34,15.22,34,34c0,7.49-2.42,14.41-6.51,20.02c-1.25,1.67-1.99,3.74-1.99,5.98c0,4.43,2.89,8.19,6.88,9.5H484.36z"/>
</svg>
